:SAMPLES-PER-SECOND 30
:FULLY-SPECIFIED
:DEGREES
83
root  38.4746 39.0787 4.61519 168.596 86.4218 170.219
RightUpLeg  -22.9147 1.49776 0.0764123
RightLeg  49.2235 9.89215 -0.405886
RightFoot  7.80093 -1.01992 5.53509
RightToes  -4.07455e-010 -1.59028e-015 9.93923e-017
Spine  -3.06079 -4.82192 -8.67546
Spine1  11.7961 -6.5226 2.34228
HEad  -8.84094 6.03801 2.931
LeftShoulder1  9.93923e-017 0 1.22299e-017
LeftArm  23.9905 7.97004 -78.3971
LeftForeArm  -45.3345 -31.6987 19.7587
LeftHand  0.948232 6.70929 -1.45765
RightShoulder  1.98785e-016 -4.96962e-017 1.55301e-017
RightArm  37.38 -64.8416 80.6663
RightForeArm  -40.9079 18.8562 -5.7574
RightHand  1.14993 -12.0774 -0.689764
LeftUpLeg  -3.76704 -2.43726 -5.08199
LeftLeg  18.576 -11.8685 2.53706
LeftFoot  -9.98254 -0.0715871 1.40134
LeftToes  -3.15592e-010 -1.11882e-010 -6.33042e-011
84
root  40.2388 39.0638 4.68274 170.249 85.511 172.33
RightUpLeg  -24.2806 0.892607 -0.282382
RightLeg  39.7391 9.4454 -0.444641
RightFoot  6.7918 -0.99927 5.7059
RightToes  -4.07455e-010 -1.59028e-015 9.93923e-017
Spine  -2.5078 -5.57476 -9.93954
Spine1  11.0685 -7.41846 3.70321
HEad  -8.5138 6.68643 3.23287
LeftShoulder1  9.93923e-017 0 1.22299e-017
LeftArm  20.6511 2.26167 -76.8134
LeftForeArm  -41.7375 -34.9959 21.3017
LeftHand  0.93874 6.65452 -0.913366
RightShoulder  1.98785e-016 -4.96962e-017 1.55301e-017
RightArm  34.0653 -70.3363 72.8237
RightForeArm  -35.5083 18.0814 -4.48637
RightHand  1.13974 -12.0255 -0.588243
LeftUpLeg  0.151258 -0.549227 -4.10236
LeftLeg  17.5115 -14.4646 1.65355
LeftFoot  -11.1629 -0.0578093 1.28303
LeftToes  -3.15592e-010 -1.11882e-010 -6.33042e-011
85
root  41.9892 38.9856 4.72124 172.705 84.7689 174.744
RightUpLeg  -24.7167 0.520745 -0.497853
RightLeg  27.439 9.81964 0.165377
RightFoot  7.07438 -0.960196 5.4066
RightToes  -4.07455e-010 -1.59028e-015 9.93923e-017
Spine  -2.70656 -6.36118 -10.1575
Spine1  10.8334 -8.11457 4.43139
HEad  -8.46218 7.3416 3.35568
LeftShoulder1  9.93923e-017 0 1.22299e-017
LeftArm  18.522 -2.72177 -75.26
LeftForeArm  -39.9447 -37.1342 22.4394
LeftHand  0.935469 6.67162 0.401694
RightShoulder  1.98785e-016 -4.96962e-017 1.55301e-017
RightArm  31.4967 -73.8961 63.2091
RightForeArm  -27.9541 16.4822 -1.91459
RightHand  1.14768 -12.2291 -0.35636
LeftUpLeg  3.76806 0.358543 -3.01061
LeftLeg  15.9462 -16.0326 1.09981
LeftFoot  -12.329 -0.0507133 1.64357
LeftToes  -3.15592e-010 -1.11882e-010 -6.33042e-011
86
root  43.7316 38.9073 4.74256 178.377 84.1743 -179.95
RightUpLeg  -24.043 1.4287 -0.706217
RightLeg  12.6859 10.5175 0.731357
RightFoot  7.10873 -0.881236 4.94606
RightToes  -4.07455e-010 -1.59028e-015 9.93923e-017
Spine  -3.46232 -7.05476 -9.61569
Spine1  11.1721 -8.79296 5.18498
HEad  -8.66757 7.90711 3.11626
LeftShoulder1  9.93923e-017 0 1.22299e-017
LeftArm  16.2275 -6.41934 -74
LeftForeArm  -39.2851 -38.5707 23.2126
LeftHand  0.939093 6.72122 1.42004
RightShoulder  1.98785e-016 -4.96962e-017 1.55301e-017
RightArm  31.6238 -75.564 52.9869
RightForeArm  -21.2966 14.548 0.573109
RightHand  1.19097 -12.6045 -0.479925
LeftUpLeg  7.11491 0.949711 -1.52182
LeftLeg  13.8806 -17.13 0.763388
LeftFoot  -12.9722 -0.0422599 1.14718
LeftToes  -3.15592e-010 -1.11882e-010 -6.33042e-011
87
root  45.5442 38.6968 4.81647 -179.329 83.6557 -177.985
RightUpLeg  -22.9212 2.76261 -1.26579
RightLeg  -0.462346 9.48895 0.680495
RightFoot  5.54776 -0.918565 5.61256
RightToes  -4.07455e-010 -1.59028e-015 9.93923e-017
Spine  -4.24296 -7.48776 -9.98091
Spine1  11.7754 -9.46858 6.55457
HEad  -9.30506 8.19882 2.58895
LeftShoulder1  9.93923e-017 0 1.22299e-017
LeftArm  13.5024 -8.67056 -73.3733
LeftForeArm  -39.1381 -39.5645 23.7492
LeftHand  0.933356 6.69644 1.93176
RightShoulder  1.98785e-016 -4.96962e-017 1.55301e-017
RightArm  32.1661 -75.5499 45.9213
RightForeArm  -17.0511 12.8339 2.38944
RightHand  1.2651 -13.0731 -0.949877
LeftUpLeg  9.96913 1.29707 -0.215966
LeftLeg  13.1194 -18.1734 0.516658
LeftFoot  -13.3928 -0.0400367 -0.358933
LeftToes  -3.15592e-010 -1.11882e-010 -6.33042e-011
88
root  47.4352 38.4058 4.95915 -178.822 83.4501 -177.904
RightUpLeg  -23.4104 3.01352 -1.29254
RightLeg  -5.09967 6.32738 1.03291
RightFoot  3.07059 -0.869453 6.1219
RightToes  -4.07455e-010 -1.59028e-015 9.93923e-017
Spine  -5.05891 -7.62394 -10.9664
Spine1  12.5779 -10.0166 8.4321
HEad  -10.1819 8.26792 1.99772
LeftShoulder1  9.93923e-017 0 1.22299e-017
LeftArm  10.7021 -9.16582 -73.4619
LeftForeArm  -39.0012 -40.3741 24.2003
LeftHand  0.916215 6.61122 2.67778
RightShoulder  1.98785e-016 -4.96962e-017 1.55301e-017
RightArm  29.6143 -74.371 44.8024
RightForeArm  -14.4656 11.4522 3.66607
RightHand  1.32599 -13.464 -1.28154
LeftUpLeg  12.4236 0.947395 0.752911
LeftLeg  13.2863 -18.7534 0.375083
LeftFoot  -13.1301 -0.035664 -1.89617
LeftToes  -3.15592e-010 -1.11882e-010 -6.33042e-011
89
root  49.4034 38.1473 5.12889 -172.043 83.5889 -171.776
RightUpLeg  -25.0969 3.43076 -0.0966868
RightLeg  -1.7859 1.67661 1.02243
RightFoot  3.08567 -0.686213 4.81083
RightToes  -4.07455e-010 -1.59028e-015 9.93923e-017
Spine  -5.9106 -7.5384 -10.6387
Spine1  13.2434 -10.3285 9.9273
HEad  -10.8528 8.37382 1.42717
LeftShoulder1  9.93923e-017 0 1.22299e-017
LeftArm  8.52515 -7.42336 -74.0912
LeftForeArm  -38.9259 -41.1487 24.6396
LeftHand  0.907344 6.59463 3.9073
RightShoulder  1.98785e-016 -4.96962e-017 1.55301e-017
RightArm  24.5626 -72.6562 48.2601
RightForeArm  -13.1785 10.6311 4.34768
RightHand  1.31926 -13.5524 -1.03275
LeftUpLeg  14.4978 -0.641042 2.07007
LeftLeg  13.7344 -17.961 0.0159922
LeftFoot  -11.8049 0.0169075 -4.12667
LeftToes  -3.15592e-010 -1.11882e-010 -6.33042e-011
90
root  51.5244 37.837 5.3021 -159.304 83.2718 -159.334
RightUpLeg  -26.8276 4.73478 2.09642
RightLeg  5.81478 -1.37878 -0.725962
RightFoot  5.82837 -0.401955 2.45702
RightToes  -4.07455e-010 -1.59028e-015 9.93923e-017
Spine  -6.05649 -7.42518 -8.51901
Spine1  12.879 -10.3243 10.4234
HEad  -11.3401 8.58709 0.887012
LeftShoulder1  9.93923e-017 0 1.22299e-017
LeftArm  7.72586 -3.52503 -75.2282
LeftForeArm  -38.9917 -41.406 24.7865
LeftHand  0.911233 6.63858 4.80631
RightShoulder  1.98785e-016 -4.96962e-017 1.55301e-017
RightArm  18.3152 -70.6681 54.2742
RightForeArm  -13.2222 10.4972 4.42284
RightHand  1.26036 -13.3732 -0.380765
LeftUpLeg  15.9446 -4.48263 3.92706
LeftLeg  16.324 -14.7746 -1.31588
LeftFoot  -8.92933 0.288651 -8.08086
LeftToes  -3.15592e-010 -1.11882e-010 -6.33042e-011
91
root  53.6016 37.5315 5.46257 -147.026 82.1506 -146.576
RightUpLeg  -27.5024 5.97149 4.8323
RightLeg  13.4954 -1.0906 -2.52004
RightFoot  7.67908 -0.00274933 0.0526103
RightToes  -4.07455e-010 -1.59028e-015 9.93923e-017
Spine  -4.72167 -7.14222 -5.40661
Spine1  11.5399 -10.0261 10.3371
HEad  -12.1281 8.61043 0.562882
LeftShoulder1  9.93923e-017 0 1.22299e-017
LeftArm  8.95472 1.48773 -77.1307
LeftForeArm  -38.7262 -39.8493 23.942
LeftHand  0.874725 6.44145 4.80559
RightShoulder  1.98785e-016 -4.96962e-017 1.55301e-017
RightArm  10.2215 -67.788 62.1728
RightForeArm  -13.4268 10.4687 4.35916
RightHand  1.22635 -13.2038 -0.0920495
LeftUpLeg  15.6178 -5.50038 7.20498
LeftLeg  22.5887 -13.8176 -2.24038
LeftFoot  -1.61119 1.18603 -11.2021
LeftToes  -3.15592e-010 -1.11882e-010 -6.33042e-011
92
root  55.443 37.2901 5.59748 -139.613 80.5459 -138.311
RightUpLeg  -27.3131 5.37585 7.79648
RightLeg  20.0471 0.776971 -3.3559
RightFoot  5.61796 0.332364 -2.03033
RightToes  -4.07455e-010 -1.59028e-015 9.93923e-017
Spine  -2.48711 -6.7879 -2.13895
Spine1  10.4225 -9.49809 10.4728
HEad  -13.1873 8.09632 0.60479
LeftShoulder1  9.93923e-017 0 1.22299e-017
LeftArm  13.0343 6.31126 -79.9344
LeftForeArm  -38.8455 -35.2719 21.5956
LeftHand  0.769907 5.84748 4.41769
RightShoulder  1.98785e-016 -4.96962e-017 1.55301e-017
RightArm  0.918544 -63.0394 70.3728
RightForeArm  -12.1891 9.92382 4.59606
RightHand  1.24771 -13.1138 -0.591356
LeftUpLeg  12.465 -5.90153 10.1958
LeftLeg  32.3224 -12.5745 -1.68823
LeftFoot  10.8464 2.30033 -10.5953
LeftToes  -3.15592e-010 -1.11882e-010 -6.33042e-011
93
root  57.12 37.118 5.70923 -136.804 79.2345 -134.911
RightUpLeg  -26.5353 3.30851 10.1779
RightLeg  25.1638 2.252 -3.7098
RightFoot  1.11042 0.402503 -3.23902
RightToes  -4.07455e-010 -1.59028e-015 9.93923e-017
Spine  -0.988816 -6.34938 0.471636
Spine1  9.99335 -8.72319 10.7417
HEad  -13.6175 7.05136 0.820508
LeftShoulder1  9.93923e-017 0 1.22299e-017
LeftArm  23.5455 10.6268 -83.3544
LeftForeArm  -45.3207 -28.293 19.0418
LeftHand  0.689978 5.32721 3.60707
RightShoulder  1.98785e-016 -4.96962e-017 1.55301e-017
RightArm  -6.12372 -56.5494 76.6649
RightForeArm  -10.4547 9.46781 4.70453
RightHand  1.2888 -12.9782 -1.52124
LeftUpLeg  7.10364 -6.71661 11.8096
LeftLeg  42.8876 -10.2414 0.843982
LeftFoot  21.5592 2.80693 -8.72266
LeftToes  -3.15592e-010 -1.11882e-010 -6.33042e-011
